PathFileType	4	(X/Y/Z)	D:\TRACE\spotREDO_2-26-24\spot_Both_Motion_1_8-v60.trc
DataRate	CameraRate	NumFrames	NumMarkers	Units	OrigDataRate	OrigDataStartFrame	OrigNumFrames
100.00	100.00	      30	9	mm	100.00	5251	      7000
Frame#	Time	front left toe			Front right toe			aft left toe			aft right toe			Arm			FL body			FR body			AL Body			AR Body			
		X1	Y1	Z1	X2	Y2	Z2	X3	Y3	Z3	X4	Y4	Z4	X5	Y5	Z5	X6	Y6	Z6	X7	Y7	Z7	X8	Y8	Z8	X9	Y9	Z9	

5251	52.500	-412.09357	-5.35101	-558.76733	-75.22636	1.38438	-425.04129	-726.34570	19.03394	-14.43516	-376.69321	17.15187	78.47646	-163.71358	683.52637	-823.41852	-286.94571	568.26410	-615.56787	-144.82578	573.50269	-551.71149	-660.36005	567.30432	186.49681	-532.42236	571.66333	246.92720	
5252	52.510	-412.79404	-5.66488	-558.63403	-76.44376	1.01882	-425.11188	-726.71252	19.12090	-14.31924	-377.00388	17.02551	78.42526	-163.85658	682.56494	-825.03589	-288.26016	565.67993	-614.95148	-146.02136	571.01611	-551.54163	-660.11658	568.15875	187.64742	-531.70740	572.29712	247.94353	
5253	52.520	-413.50751	-5.64758	-558.25470	-76.33977	1.12092	-424.73676	-727.34052	19.24312	-14.46563	-377.64877	17.01769	78.39242	-163.77640	682.21338	-826.33795	-289.11560	563.21973	-614.51312	-147.11311	568.42566	-551.21368	-659.93146	568.49927	188.77870	-531.84845	572.75067	248.67610	
5254	52.530	-413.84995	-5.67216	-558.20483	-76.60800	1.19245	-424.29208	-727.98694	19.15258	-14.45195	-377.92279	17.15246	78.52872	-163.75435	682.62836	-826.95764	-289.75858	560.82507	-613.97162	-147.66269	565.66016	-550.29175	-660.41064	568.98779	189.41667	-532.39972	573.08801	249.17804	
5255	52.540	-414.15802	-5.60846	-558.18683	-77.24950	0.90919	-424.01462	-728.43701	18.96007	-14.36241	-378.56381	17.12728	78.46839	-163.35818	683.29163	-827.33014	-289.85339	558.69550	-613.03741	-147.87349	564.09485	-549.70966	-661.13593	568.98151	189.98889	-532.91406	573.29639	249.89833	
5256	52.550	-414.35846	-5.66102	-558.10699	-77.25465	0.85509	-423.81659	-729.04266	18.62189	-14.34740	-379.12497	17.20566	78.34788	-162.79726	684.37256	-826.96399	-289.78867	556.87793	-612.40906	-147.92769	561.90845	-548.55566	-662.23383	568.88416	190.14650	-534.17572	573.45178	250.34225	
5257	52.560	-415.25500	-4.85324	-557.73792	-77.72888	0.71257	-423.55881	-729.58301	18.48076	-14.51452	-379.53900	17.13766	78.33441	-162.60243	685.78754	-826.25397	-289.36115	556.03729	-612.05353	-147.60875	559.70886	-546.00385	-663.30475	568.82520	190.45970	-535.23804	573.29535	250.71658	
5258	52.570	-415.39716	-4.66832	-557.77002	-77.94069	0.43798	-423.17645	-730.25452	18.50692	-14.63154	-380.58694	17.07312	78.38113	-162.60426	687.15149	-825.42084	-288.98453	554.63135	-610.44623	-147.44987	558.58337	-544.71600	-664.55609	568.61810	190.53864	-536.74390	573.09961	251.15631	
5259	52.580	-415.63126	-4.34346	-557.71442	-79.50020	-0.46118	-423.23343	-730.78558	18.35916	-14.84654	-380.94330	17.44083	78.75346	-162.88937	688.07141	-824.07391	-288.11826	554.21014	-609.71106	-146.85934	557.95697	-543.30731	-665.79639	568.24683	190.78723	-538.08051	572.69708	251.76114	
5260	52.590	-415.09390	-4.82361	-558.03754	-79.55805	-0.60883	-423.06570	-730.98315	17.99680	-14.92434	-381.62479	17.57850	78.82756	-163.37192	689.12732	-822.72009	-287.32440	554.00909	-608.68048	-146.61005	557.54120	-541.76794	-667.00024	567.77466	190.93277	-539.30603	572.25323	252.33334	
5261	52.600	-415.14584	-4.70191	-558.03595	-79.56252	-0.70129	-422.86652	-731.26459	17.84894	-14.89634	-381.79669	17.59995	79.05238	-164.51646	689.81097	-821.80920	-286.91150	554.15393	-607.64642	-146.16481	557.46704	-540.26001	-668.28528	567.47821	191.32208	-541.68121	572.24762	252.96756	
5262	52.610	-415.67432	-3.98429	-557.73602	-78.61218	-0.21181	-422.45316	-731.69977	17.80049	-14.96303	-381.98895	17.45286	79.08486	-165.46074	689.94623	-820.28815	-285.95245	554.08765	-606.21722	-145.81406	557.74188	-538.94421	-668.94794	566.92285	191.87935	-542.53192	571.82422	253.80852	
5263	52.620	-415.25320	-4.39191	-557.92236	-78.82880	-0.45115	-422.39648	-732.04205	17.89578	-15.00307	-382.23819	17.26271	79.09458	-166.84906	690.01978	-819.15698	-285.37976	554.45215	-605.00317	-144.66185	557.78937	-537.11298	-668.95197	566.17896	192.63998	-543.02197	571.18158	254.71709	
5264	52.630	-415.34668	-4.28365	-557.84955	-79.02956	-0.48176	-422.37888	-732.31647	18.05517	-14.95162	-382.41568	17.21497	79.16109	-168.01955	689.73254	-818.16205	-285.35013	554.74292	-603.59802	-143.61838	557.93768	-535.61249	-670.21796	566.18359	193.49602	-543.76740	570.96411	255.70012	
5265	52.640	-415.55350	-4.30706	-557.88422	-79.12682	-0.43670	-422.33896	-732.37628	18.12306	-14.87068	-382.50684	17.24871	79.30160	-168.87975	689.52698	-817.21875	-285.28320	555.03186	-602.52765	-143.88141	558.21198	-534.28406	-670.31952	565.94794	194.61998	-544.07037	570.71808	256.65152	
5266	52.650	-415.68576	-4.49513	-557.95001	-79.22138	-0.46395	-422.28894	-732.40863	18.19070	-14.81590	-382.51733	17.21270	79.32248	-169.80035	688.92798	-816.43451	-285.05917	554.93140	-601.13550	-144.30621	558.38837	-533.27905	-670.31421	565.77783	196.10077	-543.71051	570.45538	258.38333	
5267	52.660	-416.74023	-3.94925	-557.46057	-80.40618	-0.78458	-422.56250	-732.42322	18.31589	-14.73795	-382.64380	17.24236	79.44335	-170.49232	688.46075	-815.83655	-285.78580	554.98749	-599.95801	-144.81516	558.46466	-532.21082	-670.10083	565.66345	197.38576	-543.33044	570.52838	259.85123	
5268	52.670	-416.94647	-4.05751	-557.39783	-79.40125	-0.37518	-422.14178	-732.32434	18.45114	-14.65396	-382.55447	17.22881	79.45955	-170.46033	687.81281	-815.29419	-285.95206	555.10175	-598.89880	-145.08080	558.49738	-531.06958	-669.73083	565.50708	198.90979	-543.14764	570.34686	261.00769	
5269	52.680	-417.10565	-4.18659	-557.35968	-79.64610	-0.37786	-422.15823	-732.35406	18.73946	-14.53364	-382.42096	17.25006	79.57199	-170.93481	687.40735	-814.96875	-286.52362	554.98749	-597.39282	-145.29866	558.55664	-529.88116	-669.44189	565.47852	200.54686	-542.85712	570.24371	262.53311	
5270	52.690	-417.31451	-4.21892	-557.29529	-80.67191	-1.16376	-422.87863	-732.42249	18.89865	-14.22243	-382.17548	17.26233	79.57836	-170.94786	687.06140	-814.51917	-287.03073	555.07343	-596.45599	-145.80179	558.52563	-528.87372	-669.12408	565.36365	202.14807	-542.37183	570.14764	264.08643	
5271	52.700	-416.39496	-5.26817	-557.61847	-80.63457	-0.85618	-422.72589	-732.38336	18.98636	-14.35616	-382.17670	17.28302	79.58255	-171.12257	686.75433	-814.21277	-287.28812	554.79602	-595.04828	-145.99191	558.38928	-527.51392	-668.58777	565.31348	203.85382	-541.94653	570.08801	265.64810	
5272	52.710	-416.52158	-5.03609	-557.59692	-81.13351	-1.40781	-422.94748	-732.38629	18.96638	-14.14301	-382.60468	17.12956	79.52476	-171.22771	686.10034	-813.82953	-287.50009	554.54553	-593.26270	-146.34810	558.12640	-526.26501	-668.40790	565.20490	205.71477	-541.61066	570.05359	267.25574	
5273	52.720	-421.01385	1.68524	-555.92847	-80.63262	-2.09600	-422.38174	-731.74890	19.67522	-14.29823	-381.94907	15.35578	79.67443	-171.40869	685.85535	-813.91687	-287.41196	553.90778	-591.38324	-146.20673	558.11884	-524.74707	-668.45367	564.65985	206.77582	-540.88519	569.07825	268.69095	
5274	52.730	-420.59805	13.47679	-550.61053	-79.94257	-2.95651	-421.27985	-730.80066	19.64468	-13.79012	-381.86642	15.28709	79.85609	-171.29210	685.78632	-814.22260	-286.95087	553.12964	-590.63245	-145.90581	557.85657	-523.30042	-669.28796	564.18964	207.55600	-541.81482	569.59741	269.43015	
5275	52.740	-422.25244	24.79605	-548.65668	-79.77119	-3.13043	-421.45419	-730.75592	18.93471	-14.04499	-381.67096	16.38837	80.10976	-170.71378	685.88727	-813.81720	-286.54239	551.88660	-589.01093	-145.55527	557.49786	-522.06946	-669.37073	564.27441	208.75803	-543.10748	570.68024	270.11932	
5276	52.750	-425.43359	37.97047	-551.42938	-78.29028	-2.17284	-420.32214	-731.26923	19.26449	-13.89635	-382.24384	16.65656	80.09341	-170.77200	686.03174	-813.44482	-286.20813	551.28711	-588.11554	-145.18477	556.97070	-520.60339	-669.53650	564.39099	209.39912	-543.04150	571.07617	271.42169	
5277	52.760	-425.76556	49.57751	-557.71368	-78.27378	-2.16440	-420.62845	-731.25873	19.16211	-13.88052	-381.71817	16.30693	80.24754	-171.54646	685.70093	-813.52673	-286.43958	550.89996	-587.29962	-145.44861	556.76605	-519.56647	-670.30145	563.95886	210.56270	-543.61481	571.06940	272.90048	
5278	52.770	-426.27811	62.24378	-563.23993	-78.45030	-1.95576	-420.61746	-730.98822	19.27883	-13.75119	-381.71872	16.07708	80.28719	-172.22466	685.44623	-813.89410	-286.66742	550.82050	-586.02875	-145.91795	556.72937	-518.59668	-670.58582	563.54602	211.30162	-544.01349	570.55737	273.47986	
5279	52.780	-423.94473	73.46225	-565.89142	-78.37461	-1.78648	-420.55524	-731.22253	19.84429	-13.59162	-381.58548	15.91893	80.28800	-172.82718	685.31775	-814.09027	-287.36819	551.18640	-585.59106	-146.27734	556.69006	-517.71802	-670.15875	562.83063	212.36020	-544.34308	570.19391	274.35400	
5280	52.790	-426.13791	82.47916	-565.49335	-78.26022	-1.78794	-420.56091	-730.94617	19.63110	-13.55456	-381.64850	15.76087	80.30518	-173.36395	685.18829	-813.93066	-287.68091	551.03827	-584.46851	-146.57759	556.99927	-516.79657	-671.60461	562.58728	212.97502	-544.91156	569.38910	275.21359	
